<svg width="639" height="614" viewBox="0 0 639 614" fill="none" xmlns="http://www.w3.org/2000/svg">
<path d="M97.4326 553.835C98.2498 555.365 99.051 556.902 99.8364 558.446C100.62 559.989 101.576 561.451 102.434 562.949C109.336 574.976 109.169 576.976 111.41 576.373C111.87 576.242 112.262 575.94 112.506 575.528C113.245 574.261 112.186 572.878 111.11 570.879C107.821 564.325 103.863 558.129 99.2985 552.39C98.5324 551.399 96.7278 552.527 97.4326 553.835ZM65.4472 576.703C66.9743 577.999 68.6499 579.11 70.4387 580.01C91.2085 591.687 91.2732 592.174 92.8054 591.251C93.8268 590.648 93.9494 589.03 91.1506 587.528C70.2447 576.288 67.9975 575.215 66.4585 574.973C66.2391 574.917 66.0075 574.934 65.7985 575.021C65.5896 575.108 65.4148 575.261 65.3005 575.457C65.1862 575.652 65.1387 575.879 65.1652 576.104C65.1917 576.329 65.2907 576.54 65.4472 576.703ZM57.7794 613.39C62.3054 613.871 66.8682 613.895 71.3989 613.462C73.8743 613.274 90.6841 611.643 92.2197 609.906C92.468 609.653 92.6377 609.333 92.7084 608.986C92.779 608.639 92.7477 608.278 92.6181 607.948C92.4884 607.618 92.2661 607.333 91.9779 607.127C91.6897 606.92 91.348 606.802 90.994 606.786C90.2517 606.687 84.6677 607.869 79.5808 608.615C74.4225 609.371 58.1301 611.023 57.7896 611.054C57.4799 611.052 57.1823 611.174 56.9623 611.392C56.7424 611.61 56.618 611.907 56.6167 612.217C56.6153 612.527 56.737 612.824 56.9551 613.044C57.1732 613.265 57.4697 613.389 57.7794 613.39ZM368.032 328.249C363.091 269.735 356.894 260.556 323.523 250.709C311.902 247.282 300.091 244.517 288.194 242.228C261.906 237.37 235.365 233.999 208.697 232.132C208.697 230.596 208.697 229.066 208.728 227.524C216.273 230.456 224.795 226.992 232.102 224.707C239.813 222.314 247.195 218.969 254.077 214.747C273.008 203.092 301.422 174.433 311.565 162.269C312.355 161.278 312.175 160.781 311.225 159.429C312.546 158.434 314.05 157.71 315.651 157.297C320.077 156.03 333.823 154.112 338.409 153.55C343.227 152.944 348.478 152.147 351.862 148.277C357.562 141.768 353.159 133.907 345.185 132.047C342.322 131.46 339.375 131.416 336.496 131.918C336.221 131.918 335.957 132.027 335.763 132.221C335.568 132.416 335.459 132.68 335.459 132.955C335.459 133.23 335.568 133.494 335.763 133.688C335.957 133.883 336.221 133.992 336.496 133.992C341.729 134.51 346.537 134.711 349.615 138.389C350.161 139.129 350.532 139.983 350.703 140.887C350.873 141.791 350.836 142.722 350.597 143.61C350.357 144.498 349.92 145.32 349.319 146.016C348.717 146.711 347.966 147.262 347.122 147.627C343.084 150.079 338.859 149.524 322.049 152.395C317.506 152.741 313.108 154.153 309.212 156.517C305.675 150.753 302.812 144.602 300.68 138.185C297.65 129.826 297.735 128.835 296.536 127.19C294.108 123.862 289.447 126.195 286.298 127.095C260.452 134.507 235.409 144.477 211.54 156.857C208.381 147.844 204.737 139.008 200.624 130.388C192.616 113.647 183.416 97.649 165.479 92.4513C151.577 88.4184 136.977 91.6815 124.202 98.6197C122.499 99.5394 120.838 100.517 119.152 101.467C118.631 98.6061 118.832 99.5019 118.682 98.5652C138.924 96.1469 137.28 74.4977 133.926 54.463C137.205 53.0167 140.351 51.2878 143.33 49.296C149.725 44.6296 157.011 38.451 151.648 32.4085C148.611 29.0024 143.712 29.2783 139.353 30.0243C131.818 3.8995 97.848 -9.14586 78.4572 9.92829C65.9239 22.2754 65.0148 41.5437 72.7302 56.5442C73.0511 57.2729 73.4605 57.9593 73.9492 58.5878C73.9718 58.847 74.0625 59.0956 74.212 59.3085C74.3614 59.5214 74.5644 59.6911 74.8004 59.8004C67.405 66.0676 70.4762 77.8527 78.8624 79.2152C84.0174 80.0667 82.2332 77.5802 82.5363 81.1532C83.0931 87.7087 82.7321 94.3099 81.4637 100.766C78.2019 99.3588 74.8242 97.9249 71.4636 96.7157C57.7352 91.7973 43.2031 91.1944 32.9272 101.484C21.9533 112.486 14.1085 138.549 10.2099 153.557C3.13797 180.758 -4.28807 212.036 5.13663 238.709C13.8769 263.437 35.6613 280.233 58.5625 292.866C70.629 299.678 83.5212 304.908 96.9219 308.429C98.4268 326.263 101.008 344.026 103.231 361.785C112.71 437.544 119.346 511.282 140.858 578.989C141.488 580.968 143.436 580.419 144.852 580.181C144.662 581.608 144.556 588.911 144.577 590.348C144.597 590.825 144.801 591.276 145.146 591.607C145.491 591.937 145.95 592.121 146.427 592.121C146.905 592.121 147.364 591.937 147.708 591.607C148.053 591.276 148.257 590.825 148.278 590.348C148.278 589.326 148.223 581.152 147.92 579.677C171.485 575.801 168.087 576.465 169.371 576.165C170.488 581.154 172.109 586.017 174.209 590.678C174.433 590.996 174.759 591.227 175.132 591.334C175.506 591.44 175.904 591.416 176.262 591.265C176.62 591.114 176.915 590.845 177.099 590.503C177.283 590.161 177.345 589.766 177.274 589.384C175.316 584.748 173.626 580.003 172.21 575.174C173.448 574.459 174.509 573.476 175.317 572.298C176.125 571.119 176.659 569.774 176.879 568.362C178.318 561.987 179.209 555.501 179.545 548.974C187.805 434.751 182.558 390.781 182.217 368.274C181.959 351.093 183.338 330.766 191.128 315.275C194.281 309.001 198.295 310.796 206.143 311.933L295.954 325.044C298.213 354.125 303.92 382.834 312.954 410.567C315.641 418.858 318.744 427.008 322.253 434.986C322.521 435.632 322.939 436.206 323.471 436.661C324.004 437.115 324.637 437.436 325.318 437.598C325.069 438.262 325.192 437.707 324.756 440.647C324.32 443.586 327.183 443.838 327.82 442.026C328.106 440.719 328.205 439.379 328.116 438.044C331.266 438.208 348.205 436.443 350.837 436.001C350.068 441.832 354.32 440.595 354.187 438.657C354.133 437.911 353.588 436.631 353.507 435.456C356.397 434.638 357.252 432.806 358.015 429.928C367.933 392.791 372.584 382.079 368.032 328.249ZM181.53 141.019C193.511 157.102 205.439 185.366 209.392 215.677C209.561 217.077 209.515 218.494 209.256 219.88C209.248 220.15 209.144 220.409 208.964 220.61C208.783 220.811 208.537 220.942 208.269 220.978C208.001 221.014 207.729 220.954 207.501 220.809C207.274 220.663 207.105 220.442 207.025 220.183C206.801 219.448 206.46 218.766 206.266 218.024C204.022 201.965 199.908 186.225 194.008 171.122C189.834 161.156 185.13 151.421 179.916 141.959C179.854 141.853 179.814 141.736 179.797 141.614C179.781 141.493 179.789 141.369 179.82 141.25C179.851 141.132 179.905 141.021 179.98 140.923C180.054 140.825 180.147 140.743 180.253 140.682C180.359 140.62 180.476 140.58 180.597 140.563C180.719 140.547 180.842 140.554 180.961 140.586C181.08 140.617 181.191 140.671 181.288 140.746C181.386 140.82 181.468 140.913 181.53 141.019ZM118.938 89.1746C115.41 91.4567 112.829 90.7141 111.372 88.4593C110.96 87.8722 110.69 87.1973 110.584 86.4879C110.478 85.7786 110.538 85.0542 110.759 84.372C110.791 84.2623 110.855 84.1643 110.942 84.0899C111.028 84.0156 111.135 83.9681 111.248 83.9533C111.362 83.9385 111.477 83.957 111.58 84.0066C111.683 84.0561 111.769 84.1346 111.828 84.2323C112.057 84.7705 112.339 85.2746 112.564 85.8128C113.02 86.9198 113.585 88.2788 115.128 88.2311C117.171 88.1664 119.615 85.6799 120.089 85.2712C121.342 84.1676 123.255 86.4088 118.938 89.1746ZM116.527 102.867C104.865 108.923 97.0717 106.883 84.6235 102.278C84.8849 101.335 85.0817 100.376 85.2125 99.4065C85.7028 96.5318 83.3364 101.014 116.146 98.8002C116.231 100.36 116.357 101.529 116.527 102.867ZM77.32 16.0627C93.2446 -5.43321 126.878 3.95059 135.979 30.7396C125.022 33.352 79.8975 53.993 78.859 55.1511C77.589 55.7505 77.1293 55.9174 75.7367 56.6804C69.5603 43.0594 68.4197 28.3144 77.32 16.0627ZM78.8624 75.9623C77.3065 75.5156 75.9606 74.529 75.066 73.1796C74.3615 72.0645 73.9189 70.8041 73.7715 69.4933C73.624 68.1824 73.7756 66.8552 74.2147 65.6114C74.6539 64.3676 75.3692 63.2396 76.3069 62.3121C77.2446 61.3847 78.3802 60.682 79.6285 60.2568C82.7213 61.2301 85.3262 63.3474 86.9115 66.1766C87.1326 66.5362 87.4753 66.8046 87.8773 66.933C88.2793 67.0614 88.7141 67.0414 89.1026 66.8765C89.4911 66.7117 89.8076 66.4129 89.9948 66.0345C90.1819 65.6561 90.2271 65.2231 90.1223 64.8142C89.0516 61.5737 88.6485 58.1498 88.9374 54.7492C88.9919 53.867 85.9207 55.6177 117.467 41.3257C123.466 38.6008 140.62 30.6238 147.311 33.4338C150.184 34.6395 151.012 37.1158 148.615 40.2017C144.046 44.7115 138.975 48.6818 133.5 52.0345C132.917 48.8341 132.23 45.6534 131.441 42.4974C131.322 41.5656 130.98 40.6763 130.443 39.9054C130.337 39.7383 130.181 39.6096 129.997 39.538C129.813 39.4663 129.611 39.4557 129.421 39.5075C129.23 39.5594 129.061 39.671 128.939 39.826C128.816 39.981 128.747 40.1712 128.74 40.3686C129.142 44.3054 129.773 48.2155 130.63 52.0788C129.789 51.5251 128.828 51.1793 127.828 51.07C126.827 50.9606 125.814 51.0907 124.873 51.4497C123.933 51.8086 123.091 52.386 122.417 53.1344C121.743 53.8828 121.257 54.7806 120.998 55.754C119.86 55.6682 118.717 55.7232 117.593 55.9174C116.478 53.7698 115.096 51.7717 113.48 49.9704C112.925 49.4016 111.736 49.9704 112.063 50.7981C112.899 52.7891 113.898 54.7076 115.049 56.5339C113.238 57.147 111.569 58.1202 110.143 59.3951C109.614 58.5113 108.863 57.7819 107.964 57.2799C102.383 54.1871 96.5473 60.921 99.0023 66.163C101.089 70.6182 111.389 72.3382 111.096 62.6036C111.059 61.4387 110.851 61.9224 111.273 61.5613C112.753 60.346 114.502 59.5027 116.374 59.1021C118.62 63.2535 120.555 67.5661 122.162 72.0044C120.366 72.0225 118.577 71.7734 116.854 71.2653C116.493 71.166 116.107 71.2142 115.781 71.3994C115.456 71.5847 115.217 71.8918 115.118 72.2531C115.018 72.6144 115.066 73.0005 115.252 73.3262C115.437 73.652 115.744 73.8908 116.105 73.9902C118.428 74.6133 120.839 74.8435 123.238 74.6714C123.546 74.6141 123.837 74.4921 124.094 74.3136C124.351 74.1351 124.567 73.9042 124.728 73.636C124.889 73.3678 124.991 73.0686 125.027 72.7579C125.064 72.4473 125.035 72.1325 124.941 71.8341C123.325 67.3729 121.39 63.0336 119.152 58.8501C119.548 58.8273 119.946 58.8479 120.337 58.9114C121.165 58.9727 120.361 58.7888 121.209 60.594C121.722 61.5012 122.434 62.28 123.291 62.8718C124.149 63.4636 125.129 63.8529 126.159 64.0103C127.189 64.1677 128.241 64.0892 129.236 63.7806C130.231 63.4721 131.143 62.9415 131.904 62.2289C132.333 66.398 132.738 71.3641 132.724 75.5536C130.477 74.8383 117.961 82.0252 89.5026 75.4616C88.6899 75.1956 87.8313 75.0982 86.9796 75.1755C85.8696 72.9616 83.2922 77.1306 78.8624 75.9623ZM58.3038 231.451C58.806 230.075 58.7439 228.556 58.1309 227.225C57.5179 225.895 56.4038 224.861 55.0317 224.349C54.6008 224.218 54.2365 223.927 54.0141 223.535C53.7917 223.143 53.7282 222.681 53.8366 222.244C55.665 209.945 60.6463 181.677 61.838 178.741C62.4611 177.205 62.6075 175.918 63.8265 176.064C66.7036 176.405 63.2783 182.628 57.3572 221.628C59.0815 222.593 60.4477 224.089 61.2521 225.895C62.0565 227.7 62.2561 229.717 61.821 231.645C82.9823 234.789 101.692 245.951 118.618 259.02C120.746 260.661 118.339 263.141 116.864 262.007C70.5852 226.233 54.0817 239.704 58.3038 231.451ZM364.368 387.31C362.887 397.028 360.112 406.282 354.885 426.627C353.915 430.432 354.17 431.559 351.705 432.046C344.266 433.256 336.763 434.029 329.233 434.362C328.032 434.516 326.813 434.314 325.726 433.78C325.631 433.708 325.61 433.695 325.6 433.582C311.384 398.374 302.688 361.18 299.818 323.317C299.813 322.878 299.667 322.453 299.401 322.104C299.136 321.755 298.765 321.501 298.344 321.379L206.12 307.959C200.049 307.076 193.692 305.2 189.5 310.435C187.862 312.746 186.567 315.283 185.656 317.966C173.225 348.621 180.154 383.519 180.304 430.677C180.389 455.858 177.58 543.759 173.855 563.477C173.75 566.19 172.849 568.812 171.264 571.015C169.902 572.245 169.97 571.972 144.263 576.151C134.213 543.013 126.72 509.153 121.849 474.868C119.156 457.37 99.942 310.513 99.7173 309.12C107.218 310.985 114.928 311.871 122.656 311.756C120.229 315.808 117.312 319.544 113.97 322.881C112.52 324.311 111.624 324.843 111.747 325.912C111.759 326.278 111.885 326.631 112.108 326.921C112.331 327.211 112.639 327.424 112.989 327.53C114.3 327.816 114.981 327.009 116.238 325.776C120.955 321.154 124.766 315.69 127.474 309.665C133.388 303.432 136.245 281.8 123.272 266.68C128.437 257.123 138.523 250.331 148.09 245.831C173.412 233.941 205.633 236.352 207.917 234.68C222 237.405 266.481 239.683 310.608 251.029C343.803 259.544 355.001 263.594 360.452 297.921C364.283 322.029 367.756 365.069 364.368 387.3V387.31ZM636.544 411.589C635.73 411.623 635.917 412.11 636.367 410.758C637.119 408.49 636.85 406.62 636.574 395.931C636.563 395.587 636.459 395.252 636.275 394.961C632.655 394.514 631.508 394.249 605.73 389.759C605.501 390.4 605.094 390.961 604.556 391.376C604.018 391.792 603.373 392.044 602.696 392.103C600.139 392.443 597.588 390.219 595.842 388.656C594.429 387.399 596.778 388.336 579.778 385.25C566.233 391.432 556.934 422.765 542.457 438.726C536.883 444.877 531.493 449.686 533.328 459.411C534.932 467.902 541.667 472.187 550.084 473.635C567.85 476.7 583.959 467.643 597.953 456.464C605.443 450.47 626.258 432.411 628.995 429.716C633.595 425.19 637.984 419.89 638.328 413.367C638.324 412.895 638.135 412.444 637.801 412.111C637.467 411.779 637.015 411.591 636.544 411.589ZM573.894 400.69C575.414 400.379 576.978 400.352 578.508 400.611C581.598 401.086 584.531 402.288 587.067 404.116C589.594 405.945 589.968 406.538 590.343 407.767C590.615 408.653 589.631 409.198 588.906 408.871C588.171 408.584 587.521 408.115 587.016 407.509C583.417 404.354 578.874 402.483 574.098 402.188C573.298 402.124 572.992 400.802 573.901 400.673L573.894 400.69ZM565.426 415.404C572.348 412.982 583.785 418.936 582.11 421.14V421.099C580.969 423.207 578.94 419.525 573.128 417.877C571.09 417.345 568.996 417.057 566.89 417.018C566.294 416.984 565.314 417.1 564.888 416.596C564.513 416.136 564.81 415.281 565.433 415.38L565.426 415.404ZM557.843 428.926C560.184 428.024 562.713 427.723 565.2 428.05C567.686 428.378 570.051 429.323 572.079 430.799C573.479 431.596 574.78 432.557 575.954 433.661C576.147 433.866 576.261 434.133 576.274 434.415C576.288 434.697 576.201 434.974 576.029 435.197C575.856 435.42 575.61 435.575 575.335 435.633C575.059 435.691 574.771 435.648 574.524 435.514C569.297 432.649 567.299 429.662 558.18 430.207C558.022 430.217 557.865 430.171 557.736 430.078C557.608 429.985 557.516 429.849 557.477 429.695C557.438 429.541 557.454 429.378 557.522 429.235C557.59 429.091 557.706 428.976 557.85 428.909L557.843 428.926ZM537.567 451.321C537.785 448.256 541.575 444.686 544.847 441.055C547.5 440.158 550.313 439.834 553.1 440.107C555.888 440.381 558.585 441.243 561.013 442.639C564.349 443.94 567.149 446.329 568.958 449.42C570.768 452.511 571.481 456.123 570.983 459.67C561.378 464.476 536.733 463.171 537.574 451.304L537.567 451.321ZM569.13 460.572C569.093 460.583 569.057 460.596 569.022 460.613C568.797 460.702 569.018 460.61 569.137 460.555L569.13 460.572ZM634.698 414.185C634.698 414.263 634.698 414.362 634.698 414.185V414.185ZM634.698 414.086C633.837 420.973 626.227 427.618 620.912 432.206C598.62 451.458 585.161 464.564 568.017 469.186C555.623 472.517 539.004 471.23 536.587 458.358C542.137 465.756 555.531 466.257 564.895 464.878C569.079 464.261 569.689 464.431 577.956 459.608C587.414 454.159 596.468 448.038 605.049 441.29C605.416 440.984 622.71 426.419 629.288 419.743C635.41 413.537 634.77 413.156 634.698 414.086Z" fill="#191919"/>
</svg>
